<svg width="100" height="22" viewBox="0 0 100 22" fill="none" xmlns="http://www.w3.org/2000/svg">
  <path d="M28.3887 16.6065L32.5479 5.90263H35.3309L39.4901 16.6065H36.7378L36.0037 14.481H31.8751L31.1412 16.6065H28.3887ZM32.6702 12.2026H35.2086L33.9394 8.51744L32.6702 12.2026ZM42.7577 16.7136C40.9991 16.7136 40.0816 15.7196 40.0816 13.7471V10.6429H38.9195V8.59389H40.0816V6.48371H42.6506V8.59389H44.3479V10.6429H42.6506V13.6247C42.6506 14.2364 42.9565 14.5728 43.568 14.5728C43.9198 14.5728 44.195 14.5116 44.3632 14.4504V16.4995C44.0115 16.6371 43.3999 16.7136 42.7577 16.7136ZM45.7451 16.6065V5.44391H48.3141V16.6065H45.7451ZM49.5998 14.2823C49.5998 12.6614 50.6854 11.9121 52.9486 11.7286L54.5694 11.591V11.2546C54.5694 10.6888 54.2178 10.2912 53.4838 10.2912C52.7651 10.2912 52.3521 10.6735 52.2911 11.1781H49.8598C50.1044 9.51138 51.4805 8.4104 53.499 8.4104C55.8233 8.4104 57.1383 9.61842 57.1383 11.4992V16.6065H54.6458V15.5361C54.3401 16.2395 53.4685 16.79 52.3369 16.79C50.6702 16.79 49.5998 15.8114 49.5998 14.2823ZM52.0923 14.1905C52.0923 14.741 52.5051 15.0774 53.1474 15.0774C54.0495 15.0774 54.5694 14.5575 54.5694 13.64V13.1966L53.3614 13.3189C52.6274 13.3954 52.0923 13.5788 52.0923 14.1905ZM61.8926 16.79C59.7673 16.79 58.3145 15.7655 58.1157 13.9917H60.4553C60.5776 14.634 61.0517 15.0468 61.8926 15.0468C62.6419 15.0468 63.116 14.7563 63.116 14.2823C63.116 13.9458 62.9019 13.7318 62.3208 13.64L60.5011 13.3342C58.972 13.0742 58.2381 12.3861 58.2381 11.0252C58.2381 9.49608 59.6143 8.4104 61.6939 8.4104C63.7275 8.4104 65.0427 9.37375 65.1803 11.0405H62.8866C62.7949 10.5206 62.4279 10.1536 61.6939 10.1536C61.021 10.1536 60.5624 10.3983 60.5624 10.8264C60.5624 11.1322 60.7764 11.2699 61.2657 11.3463L63.0701 11.6216C64.691 11.8662 65.4555 12.6461 65.4555 13.9917C65.4555 15.7349 63.8959 16.79 61.8926 16.79ZM66.8214 16.6065V5.90263H69.2068L74.1764 12.4014V5.90263H76.6689V16.6065H74.2683L69.3138 10.1077V16.6065H66.8214ZM77.5775 16.6065L81.1556 11.117L77.761 5.90263H80.7886L82.7306 9.02206L84.6574 5.90263H87.7002L84.3057 11.117L87.8838 16.6065H84.8102L82.7306 13.2424L80.6357 16.6065H77.5775ZM91.6784 16.6065V8.18103H88.4059V5.90263H97.5808V8.18103H94.3084V16.6065H91.6784Z" fill="#E4F4EB" />
  <path d="M16.6133 1.16071C21.9581 1.16071 26.2907 5.49329 26.2907 10.8381C26.2907 16.183 21.9581 20.5155 16.6133 20.5155V1.16071Z" fill="#E4F4EB" />
  <path opacity="0.6" d="M16.6121 1.16071H11.7734V5.9994H16.6121V1.16071Z" fill="#E4F4EB" />
  <path d="M16.6121 6.00055H11.7734V10.8392H16.6121V6.00055Z" fill="#E4F4EB" />
  <path opacity="0.8" d="M16.6121 10.8384H11.7734V15.6771H16.6121V10.8384Z" fill="#E4F4EB" />
  <path opacity="0.6" d="M16.6121 15.6763H11.7734V20.515H16.6121V15.6763Z" fill="#E4F4EB" />
  <path opacity="0.1" d="M11.7743 1.16071H6.93555V5.9994H11.7743V1.16071Z" fill="#E4F4EB" />
  <path opacity="0.6" d="M11.7743 6.00055H6.93555V10.8392H11.7743V6.00055Z" fill="#E4F4EB" />
  <path opacity="0.4" d="M11.7743 10.8384H6.93555V15.6771H11.7743V10.8384Z" fill="#E4F4EB" />
  <path opacity="0.1" d="M11.7743 15.6783H6.93555V20.517H11.7743V15.6783Z" fill="#E4F4EB" />
  <path opacity="0.1" d="M6.93636 6.00055H2.09766V10.8392H6.93636V6.00055Z" fill="#E4F4EB" />
  <path opacity="0.05" d="M6.93636 10.8384H2.09766V15.6771H6.93636V10.8384Z" fill="#E4F4EB" />
</svg>